# xmcd CD database file generated by freedbAccess_ocx
#
# Track frame offsets:
#       150
#       14942
#       29033
#       43282
#       54920
#       68817
#       80935
#       95952
#       110855
#       121065
#       133961
#       146856
#       159617
#       172317
#       184688
#       199766
#       213175
#       225484
#       239587
#       254441
#
# Disc length: 3542 seconds
#
# Revision: 0
# Processed by: cddbd v1.5.2PL0 Copyright (c) Steve Scherf et al.
# Submitted via: CDnGo 2.00
#
DISCID=440dd414
DTITLE=Django Reinhart - Memorial [CD3)
DYEAR=1940
DGENRE=Jazz
TTITLE0=Nuages
TTITLE1=Swing 41
TTITLE2=Exactly like you
TTITLE3=Fantaisie sur une danse norvégienne
TTITLE4=Vendredi
TTITLE5=Liebesfreud
TTITLE6=Mabel
TTITLE7=Petits Mensonges
TTITLE8=Les Yeux noirs
TTITLE9=Sweet sue
TTITLE10=Oiseaux des iles
TTITLE11=All of me
TTITLE12=Swing 42
TTITLE13=Belleville
TTITLE14=Manoir des mes Reves
TTITLE15=Improvisation nº 1
TTITLE16=Saint-Lois blues
TTITLE17=You rascal you
TTITLE18=Sweet Georgia brown
TTITLE19=I'll see you in my dreams
EXTD=
EXTT0=
EXTT1=
EXTT2=
EXTT3=
EXTT4=
EXTT5=
EXTT6=
EXTT7=
EXTT8=
EXTT9=
EXTT10=
EXTT11=
EXTT12=
EXTT13=
EXTT14=
EXTT15=
EXTT16=
EXTT17=
EXTT18=
EXTT19=
PLAYORDER=
